<svg xmlns="http://www.w3.org/2000/svg" width="760" height="480" viewBox="0 0 760 480" role="img" aria-label="Preview do aplicativo Droppingship">
  <rect width="760" height="480" rx="28" fill="#0b1117"/>
  <rect x="32" y="34" width="696" height="412" rx="22" fill="#111a24" stroke="#243244"/>
  <rect x="58" y="66" width="160" height="340" rx="16" fill="#091017"/>
  <rect x="84" y="92" width="54" height="16" rx="8" fill="#27d17f"/>
  <rect x="84" y="140" width="102" height="12" rx="6" fill="#2a3b4f"/>
  <rect x="84" y="174" width="84" height="12" rx="6" fill="#2a3b4f"/>
  <rect x="84" y="208" width="112" height="12" rx="6" fill="#27d17f" opacity=".8"/>
  <rect x="252" y="72" width="192" height="86" rx="16" fill="#162230" stroke="#243244"/>
  <rect x="470" y="72" width="206" height="86" rx="16" fill="#162230" stroke="#243244"/>
  <rect x="280" y="100" width="82" height="12" rx="6" fill="#93a4b8"/>
  <rect x="280" y="124" width="116" height="20" rx="10" fill="#27d17f"/>
  <rect x="498" y="100" width="88" height="12" rx="6" fill="#93a4b8"/>
  <path d="M500 139h28v-22h22v22h22v-36h22v36h22v-51h22v51" fill="none" stroke="#27d17f" stroke-width="8" stroke-linecap="round"/>
  <rect x="252" y="188" width="424" height="178" rx="18" fill="#0c141d" stroke="#243244"/>
  <circle cx="304" cy="250" r="36" fill="#27d17f"/>
  <path d="M289 251h30M304 236v30" stroke="#062113" stroke-width="8" stroke-linecap="round"/>
  <rect x="364" y="222" width="190" height="16" rx="8" fill="#edf5ff"/>
  <rect x="364" y="256" width="252" height="12" rx="6" fill="#2a3b4f"/>
  <rect x="364" y="284" width="220" height="12" rx="6" fill="#2a3b4f"/>
  <rect x="364" y="318" width="86" height="26" rx="13" fill="#27d17f"/>
  <rect x="466" y="318" width="92" height="26" rx="13" fill="#223142"/>
</svg>
